<?xml version="1.0" encoding="UTF-8" standalone="no"?>
<!-- Created with Inkscape (http://www.inkscape.org/) -->

<svg
   width="126.54897mm"
   height="68.432442mm"
   viewBox="0 0 126.54897 68.432442"
   version="1.1"
   id="svg1"
   xml:space="preserve"
   inkscape:version="1.4.3 (0d15f750, 2025-12-25)"
   sodipodi:docname="dibujo.svg"
   inkscape:export-batch-name="LOGO_GRUPOROIBA"
   xmlns:inkscape="http://www.inkscape.org/namespaces/inkscape"
   xmlns:sodipodi="http://sodipodi.sourceforge.net/DTD/sodipodi-0.dtd"
   xmlns="http://www.w3.org/2000/svg"
   xmlns:svg="http://www.w3.org/2000/svg"><sodipodi:namedview
     id="namedview1"
     pagecolor="#ffffff"
     bordercolor="#000000"
     borderopacity="0.25"
     inkscape:showpageshadow="2"
     inkscape:pageopacity="0.0"
     inkscape:pagecheckerboard="0"
     inkscape:deskcolor="#d1d1d1"
     inkscape:document-units="mm"
     inkscape:zoom="0.30720592"
     inkscape:cx="755.19378"
     inkscape:cy="185.5433"
     inkscape:window-width="1440"
     inkscape:window-height="793"
     inkscape:window-x="0"
     inkscape:window-y="23"
     inkscape:window-maximized="1"
     inkscape:current-layer="layer1" /><defs
     id="defs1"><linearGradient
       id="swatch864"
       inkscape:swatch="solid"><stop
         style="stop-color:#3c6361;stop-opacity:0.81306309;"
         offset="0"
         id="stop864" /></linearGradient><linearGradient
       id="swatch853"
       inkscape:swatch="solid"><stop
         style="stop-color:#487872;stop-opacity:0.82207209;"
         offset="0"
         id="stop853" /></linearGradient></defs><g
     inkscape:label="Capa 1"
     inkscape:groupmode="layer"
     id="layer1"
     transform="translate(-353.07773,-41.541446)"><path
       style="fill:#426e6a;fill-opacity:1"
       d="m 357.31106,109.64394 c -0.58208,-0.19349 -1.43913,-0.55028 -1.90455,-0.79287 -0.46542,-0.24258 -1.1798,-0.8784 -1.5875,-1.41293 -0.65413,-0.85761 -0.74128,-1.19693 -0.74128,-2.88614 0,-1.74467 0.0724,-2.00368 0.81685,-2.92351 0.44927,-0.55509 1.40177,-1.31028 2.11667,-1.678209 1.18074,-0.60767 1.5947,-0.66895 4.51895,-0.66895 1.77052,0 3.28733,0.0682 3.37068,0.15158 0.0833,0.0834 0.22947,0.55962 0.3247,1.058329 l 0.17316,0.90675 -0.63342,-0.56225 c -0.34838,-0.30923 -0.93108,-0.71707 -1.29488,-0.906299 -0.36381,-0.18923 -1.37584,-0.34798 -2.24896,-0.35277 -1.13051,-0.006 -1.90318,0.15694 -2.68409,0.566729 -0.7789,0.40873 -1.26346,0.92012 -1.67255,1.76519 -0.38048,0.78596 -0.57595,1.69057 -0.57595,2.66534 0,1.10618 0.16973,1.7652 0.67802,2.63252 0.3729,0.63632 1.10362,1.41999 1.62381,1.74148 0.62874,0.38859 1.40561,0.59455 2.31744,0.61441 0.75441,0.0164 1.7077,-0.0621 2.11842,-0.17448 l 0.74676,-0.20436 -0.0853,-2.23972 -0.0853,-2.23973 1.12448,6.2e-4 1.12448,6.1e-4 v 2.23653 2.23652 l -0.99219,0.29468 c -0.5457,0.16208 -2.00422,0.346 -3.24114,0.40871 -1.45638,0.0738 -2.62194,-0.01 -3.3073,-0.23778 z m 25.62038,0.0627 c -0.46088,-0.13344 -1.14549,-0.60808 -1.52136,-1.05478 -0.60814,-0.72274 -0.68547,-1.05028 -0.70222,-2.97468 -0.0104,-1.18938 -0.10283,-3.08525 -0.20549,-4.21303 l -0.18668,-2.050519 1.19769,-4e-4 1.19768,-3.9e-4 -0.0793,3.956889 c -0.0638,3.18235 0.002,4.11314 0.33347,4.75506 0.22701,0.43898 0.6772,0.93969 1.00043,1.11267 0.32323,0.17299 1.28911,0.30792 2.14641,0.29984 1.11298,-0.0105 1.7575,-0.16201 2.25384,-0.5299 0.38232,-0.28336 0.83724,-0.92078 1.01093,-1.41647 0.17368,-0.49569 0.32251,-2.23296 0.33072,-3.8606 0.008,-1.62764 -0.10118,-3.26474 -0.2431,-3.63802 -0.22905,-0.602449 -0.1919,-0.678739 0.33073,-0.679159 l 0.58877,-4.7e-4 -0.14179,4.035369 c -0.10756,3.06115 -0.24883,4.23505 -0.58515,4.86247 -0.28021,0.52274 -0.83852,0.98521 -1.51721,1.25677 -0.62444,0.24985 -1.76368,0.41968 -2.72215,0.40581 -0.90656,-0.0131 -2.02537,-0.13303 -2.48625,-0.26646 z m 24.94448,-0.22353 c -0.71141,-0.28667 -1.59032,-0.79434 -1.95313,-1.12816 -0.36281,-0.33382 -0.87946,-1.0832 -1.14811,-1.66528 -0.26865,-0.58208 -0.48845,-1.53458 -0.48845,-2.11667 0,-0.58208 0.2264,-1.557 0.50311,-2.16649 0.29328,-0.64598 0.96995,-1.44632 1.62247,-1.91901 0.61564,-0.44597 1.60701,-0.942819 2.20304,-1.104109 0.59604,-0.1613 1.86946,-0.23766 2.82985,-0.16969 1.22263,0.0865 2.13993,0.33791 3.05963,0.838469 0.79752,0.43406 1.59266,1.14544 2.02417,1.81093 0.5411,0.83449 0.71069,1.42654 0.71069,2.48106 0,0.76176 -0.12664,1.72019 -0.28142,2.12985 -0.15478,0.40965 -0.60126,1.08315 -0.99219,1.49666 -0.39092,0.41351 -1.18702,0.99878 -1.7691,1.30061 -0.71754,0.37205 -1.69733,0.57843 -3.04271,0.6409 -1.52094,0.0706 -2.28647,-0.0296 -3.27785,-0.42907 z m 4.60284,-0.17931 c 0.77891,-0.31166 1.26578,-0.76075 1.78472,-1.64626 0.59949,-1.02294 0.71071,-1.51509 0.69546,-3.07716 -0.0134,-1.37353 -0.17165,-2.15915 -0.60549,-3.00623 -0.44638,-0.87153 -0.87623,-1.27455 -1.79104,-1.679209 -0.91062,-0.40282 -1.48903,-0.48966 -2.37567,-0.35671 -0.74432,0.11162 -1.49992,0.463689 -2.07069,0.964839 -0.4943,0.434 -1.03756,1.20979 -1.20726,1.72398 -0.1697,0.51419 -0.26439,1.80919 -0.21043,2.87778 0.0857,1.69719 0.20113,2.0708 0.91281,2.95448 0.44808,0.55639 1.22011,1.15372 1.71562,1.3274 0.49551,0.17369 1.16641,0.32252 1.49089,0.33073 0.32448,0.008 1.07196,-0.17792 1.66108,-0.41364 z m 27.0185,0.25545 c -0.63665,-0.2322 -1.60666,-0.8713 -2.15558,-1.42021 -0.68962,-0.68962 -1.07794,-1.37275 -1.25666,-2.21068 -0.15451,-0.72447 -0.16726,-1.70173 -0.0317,-2.42757 0.12484,-0.66821 0.47487,-1.56306 0.77786,-1.98856 0.30298,-0.42551 1.10865,-1.10153 1.79036,-1.50227 1.11764,-0.656999 1.48657,-0.728619 3.75302,-0.728619 2.19036,0 2.66512,0.085 3.69242,0.66145 0.64838,0.363809 1.54135,1.177769 1.98438,1.808819 0.70317,1.0016 0.80304,1.36352 0.78618,2.84896 -0.0163,1.43318 -0.14175,1.87824 -0.79551,2.82139 -0.48649,0.70185 -1.2693,1.36585 -2.09735,1.77905 -0.99775,0.49787 -1.80692,0.67408 -3.30553,0.71984 -1.29515,0.0395 -2.38643,-0.0861 -3.14193,-0.3616 z m 5.25859,-0.57149 c 0.3638,-0.26234 0.92935,-1.00126 1.25677,-1.64204 0.42422,-0.83021 0.59532,-1.6271 0.59532,-2.77272 0,-1.14562 -0.1711,-1.9425 -0.59532,-2.77272 -0.32742,-0.64078 -0.90913,-1.39347 -1.29269,-1.67265 -0.38356,-0.279189 -1.21699,-0.561729 -1.85208,-0.627889 -0.86218,-0.0898 -1.45245,0.0349 -2.33,0.49212 -0.795,0.414239 -1.35148,0.954839 -1.71979,1.670729 -0.40173,0.78084 -0.54162,1.54394 -0.53354,2.91041 0.009,1.44764 0.14861,2.09657 0.64128,2.97166 0.40467,0.71878 1.0164,1.31597 1.70883,1.66822 0.81361,0.4139 1.37095,0.51221 2.26914,0.40027 0.65484,-0.0816 1.48828,-0.36304 1.85208,-0.62539 z m -76.24453,-4.03061 c 0.0634,-3.44791 -8.2e-4,-4.88249 -0.23083,-5.159639 -0.27523,-0.33163 0.0912,-0.38388 2.69211,-0.38388 1.65589,0 3.41594,0.11622 3.91122,0.25826 0.49528,0.14205 1.17911,0.519989 1.51961,0.839869 0.43218,0.40602 0.61909,0.87643 0.61909,1.55814 0,0.58075 -0.21771,1.25331 -0.53718,1.65944 -0.29545,0.3756 -0.94141,0.82908 -1.43547,1.00774 l -0.8983,0.32483 1.62288,1.96196 c 0.89258,1.07908 1.8627,2.12993 2.1558,2.33523 0.49251,0.34497 0.44262,0.37328 -0.6577,0.37328 -0.65484,0 -1.43919,-0.17411 -1.74299,-0.3869 -0.30381,-0.21279 -1.23977,-1.28435 -2.07992,-2.38125 -0.99474,-1.29872 -1.72241,-2.00587 -2.08619,-2.02736 -0.30725,-0.0182 0.0941,-0.12758 0.8918,-0.24316 1.07946,-0.1564 1.60392,-0.38859 2.05052,-0.90779 0.37581,-0.4369 0.60008,-1.04272 0.60008,-1.62095 0,-0.62057 -0.20719,-1.1305 -0.63189,-1.55521 -0.34755,-0.34754 -1.04633,-0.709639 -1.55285,-0.804669 -0.50652,-0.095 -1.20443,-0.13268 -1.55091,-0.0837 l -0.62997,0.0891 v 4.961079 4.96108 l -1.05834,1.3e-4 -1.05833,1.2e-4 z m 25.31224,-0.38444 v -5.159329 l 2.77813,0.002 c 1.52797,8.8e-4 3.23982,0.12979 3.80411,0.28647 0.56429,0.15669 1.30843,0.567329 1.65364,0.912539 0.47271,0.47271 0.62767,0.91877 0.62767,1.8068 0,0.98802 -0.12999,1.2885 -0.80197,1.85394 -0.44108,0.37115 -1.24475,0.79779 -1.78594,0.94809 -0.54118,0.1503 -1.51975,0.26089 -2.17459,0.24576 l -1.19063,-0.0275 1.19063,-0.22873 c 0.80457,-0.15457 1.42654,-0.48968 1.91823,-1.03352 0.50347,-0.55689 0.7276,-1.09163 0.7276,-1.73597 0,-0.51214 -0.19084,-1.22242 -0.42408,-1.5784 -0.23324,-0.35597 -0.85832,-0.76784 -1.38906,-0.915249 -0.53074,-0.14742 -1.34391,-0.2687 -1.80705,-0.26951 -0.61556,-10e-4 -0.88808,0.1435 -1.01312,0.537479 -0.0941,0.29642 -0.0856,2.55861 0.0188,5.02708 l 0.18989,4.48813 -1.16115,-1.7e-4 -1.16115,-1.7e-4 z m 31.03931,0.37884 c 0.0627,-3.61217 -2.8e-4,-4.88191 -0.25771,-5.192089 -0.30582,-0.36849 0.0248,-0.39903 3.22424,-0.29781 2.63085,0.0832 3.78055,0.2271 4.38762,0.549069 0.45245,0.23996 0.96533,0.78078 1.13973,1.20184 0.17441,0.42105 0.23771,1.08186 0.14068,1.46846 -0.097,0.38661 -0.52979,1.00026 -0.96168,1.36367 -0.4319,0.36342 -1.07003,0.73223 -1.41809,0.81959 -0.62778,0.15756 -0.62394,0.16943 0.48342,1.49211 0.61393,0.73331 1.51704,1.7929 2.00691,2.35464 l 0.89069,1.02135 h -0.97423 c -0.53582,0 -1.19817,-0.11985 -1.47188,-0.26634 -0.27371,-0.14649 -1.06956,-1.00964 -1.76854,-1.91811 -0.69899,-0.90847 -1.47924,-1.86018 -1.73391,-2.11491 -0.25466,-0.25473 -0.77252,-0.46314 -1.1508,-0.46314 h -0.68778 l 0.0925,2.38138 0.0925,2.38139 -1.05834,1.9e-4 -1.05833,2e-4 z m 5.77769,-1.14068 c 0.42089,-0.48931 0.62154,-1.05329 0.62154,-1.74696 0,-0.78071 -0.15919,-1.1496 -0.66924,-1.55081 -0.36809,-0.28953 -1.13698,-0.605449 -1.70864,-0.702029 -0.57166,-0.0966 -1.28253,-0.0984 -1.57971,-0.004 -0.49162,0.15604 -0.54032,0.387379 -0.54032,2.566709 v 2.39523 l 1.62741,-0.11772 c 1.36574,-0.0988 1.72735,-0.2339 2.24896,-0.84031 z m 20.86217,0.76213 v -5.159369 h 1.19062 1.19063 v 5.159369 5.15938 h -1.19063 -1.19062 z m 6.08541,0.0229 v -5.182309 h 2.91217 c 1.60169,0 3.31739,0.11622 3.81268,0.25826 0.49528,0.14205 1.1791,0.519989 1.5196,0.839869 0.39661,0.3726 0.6191,0.88309 0.6191,1.42052 0,0.51501 -0.21357,1.03219 -0.55313,1.33949 -0.30423,0.27532 -0.86977,0.63262 -1.25678,0.794 l -0.70364,0.29341 0.83899,0.18949 c 0.46145,0.10422 1.14124,0.4696 1.51066,0.81196 0.36941,0.34237 0.75112,0.93906 0.84823,1.326 0.0971,0.38694 0.0478,0.9861 -0.10954,1.33147 -0.15736,0.34538 -0.61337,0.84261 -1.01334,1.10497 -0.59722,0.39174 -1.41528,0.49294 -4.57611,0.5661 l -3.84889,0.0891 z m 6.64384,4.03683 c 0.48941,-0.48942 0.68512,-0.96386 0.68512,-1.66092 0,-0.55801 -0.19823,-1.19483 -0.46299,-1.4874 -0.25465,-0.28138 -0.89164,-0.63067 -1.41553,-0.7762 -0.52388,-0.14552 -1.45854,-0.26525 -2.077,-0.26606 l -1.12448,-0.001 v 2.5434 2.5434 l 1.85488,-0.10481 c 1.56451,-0.0884 1.96212,-0.21206 2.54,-0.78993 z m -0.39077,-5.22835 c 0.27159,-0.33541 0.49381,-0.99261 0.49381,-1.46044 0,-0.56096 -0.22109,-1.05831 -0.64926,-1.46055 -0.51216,-0.48116 -0.97306,-0.616599 -2.18281,-0.641439 l -1.53356,-0.0315 -0.0773,2.214349 -0.0774,2.21435 1.76636,-0.11247 c 1.44559,-0.0921 1.85603,-0.22322 2.26017,-0.72231 z m 4.72714,6.22865 c 0,-0.0546 0.63642,-1.39407 1.41427,-2.97656 0.77785,-1.58249 1.74511,-3.61806 2.14947,-4.52348 0.40436,-0.90542 0.67497,-1.87652 0.60136,-2.157999 -0.11326,-0.43313 0.0308,-0.52748 0.937,-0.6139 l 1.07083,-0.10212 1.14687,2.458559 c 0.63078,1.35221 1.70616,3.61942 2.38975,5.03825 0.68358,1.41882 1.28882,2.66898 1.34496,2.77812 0.0562,0.10914 -0.51017,0.19844 -1.25849,0.19844 -0.74832,0 -1.29482,-0.10641 -1.21444,-0.23647 0.0804,-0.13005 -0.15945,-0.90396 -0.53295,-1.71979 l -0.67909,-1.48333 h -2.48804 c -2.28975,0 -2.51873,0.0474 -2.873,0.59532 -0.21173,0.32742 -0.54112,1.10133 -0.73198,1.71979 -0.23591,0.76442 -0.49584,1.12448 -0.81177,1.12448 -0.25561,0 -0.46475,-0.0447 -0.46475,-0.0993 z m 6.94041,-3.7543 c 0.0822,-0.0822 -0.38797,-1.24305 -1.04482,-2.57969 l -1.19426,-2.43024 -1.02775,2.22021 c -0.56526,1.22112 -1.02775,2.38198 -1.02775,2.57969 0,0.27231 0.50252,0.35947 2.07257,0.35947 1.13992,0 2.13982,-0.0673 2.22201,-0.14944 z M 443.30064,93.200651 c -0.87312,-0.19253 -2.27038,-0.6077 -3.10502,-0.92259 -0.83464,-0.31488 -2.21477,-1.03812 -3.06696,-1.60718 -0.85218,-0.56907 -2.07554,-1.60296 -2.71858,-2.29753 -0.64304,-0.69457 -2.65619,-3.33444 -4.47367,-5.86637 -1.81748,-2.53194 -4.47395,-6.21039 -5.90326,-8.17434 -1.42931,-1.96395 -2.78246,-3.85119 -3.00699,-4.19388 l -0.40825,-0.62306 4.72678,0.008 4.72679,0.008 0.8274,1.1163 c 0.45507,0.61396 3.74841,4.98583 7.31855,9.71526 3.57013,4.72942 7.04271,9.15778 7.71684,9.84079 0.67413,0.683 1.95394,1.60574 2.84402,2.05052 0.89008,0.44477 1.98627,0.82277 2.43597,0.83999 l 0.81763,0.0313 -0.79375,0.20197 c -0.43656,0.11109 -2.0439,0.2066 -3.57187,0.21225 -1.52797,0.006 -3.4925,-0.14726 -4.36563,-0.3398 z m -52.2552,-14.07519 c -1.23693,-0.21733 -3.01692,-0.70019 -3.95555,-1.07304 -0.93863,-0.37284 -2.42691,-1.10003 -3.3073,-1.61597 -0.88038,-0.51594 -2.17234,-1.47274 -2.87103,-2.12622 -0.69868,-0.65348 -1.83628,-2.03431 -2.52799,-3.06851 -0.76229,-1.13971 -1.61271,-2.9182 -2.15903,-4.51517 -0.87957,-2.57115 -0.90121,-2.73709 -0.89568,-6.86814 0.005,-3.86628 0.0666,-4.41686 0.70872,-6.35 0.38668,-1.16417 1.09879,-2.74366 1.58247,-3.50997 0.48369,-0.76632 1.46849,-2.00053 2.18844,-2.7427 0.71996,-0.74216 1.81882,-1.70015 2.44193,-2.12885 0.6231,-0.42871 1.87462,-1.12654 2.78115,-1.55073 0.90654,-0.4242 2.5546,-1.00305 3.66236,-1.28635 1.10777,-0.2833 3.2509,-0.59575 4.7625,-0.69433 1.57951,-0.10301 3.84317,-0.0551 5.32255,0.11271 1.41578,0.16056 3.61844,0.62447 4.89479,1.0309 l 2.32063,0.73897 0.0732,3.89069 c 0.0579,3.07443 2.8e-4,3.8907 -0.27445,3.8907 -0.20439,0 -0.3707,-0.35438 -0.40356,-0.8599 -0.0307,-0.47294 -0.18741,-1.42715 -0.34816,-2.12047 -0.20714,-0.89338 -0.62244,-1.60029 -1.42566,-2.42675 -0.62336,-0.64139 -1.61947,-1.41414 -2.21359,-1.71724 -0.59411,-0.30309 -1.76369,-0.7291 -2.59907,-0.94669 -0.83538,-0.21759 -2.30227,-0.39562 -3.25977,-0.39562 -0.9575,0 -2.45053,0.18364 -3.31785,0.40808 -0.86732,0.22444 -2.21537,0.78999 -2.99566,1.25677 -0.7803,0.46678 -1.89427,1.38448 -2.4755,2.03932 -0.58123,0.65484 -1.47073,2.01093 -1.97666,3.01353 -0.50594,1.0026 -1.10132,2.66947 -1.32306,3.70417 -0.22175,1.03469 -0.43636,3.19095 -0.4769,4.79167 -0.0405,1.60073 0.0835,3.96503 0.2757,5.25399 0.19218,1.28896 0.60619,3.19396 0.92002,4.23333 0.31383,1.03937 1.00481,2.71948 1.53551,3.73356 0.5307,1.01409 1.66493,2.59212 2.52051,3.50673 1.12351,1.20103 2.11284,1.93827 3.5617,2.65413 l 2.0061,0.99118 3.32044,-0.0264 c 2.0977,-0.0167 3.75888,-0.16702 4.51106,-0.40832 l 1.19063,-0.38194 0.0716,-5.34637 c 0.0665,-4.96482 0.0382,-5.34667 -0.39688,-5.35067 -0.25767,-0.002 -1.82268,-0.11632 -3.4778,-0.25323 -1.65512,-0.13691 -3.05778,-0.29739 -3.11702,-0.35663 -0.0592,-0.0592 -0.21479,-0.48108 -0.34566,-0.9374 l -0.23795,-0.82968 h 6.86532 6.86531 l -0.0708,6.53716 -0.0708,6.53716 -1.88849,0.59132 c -1.03867,0.32522 -3.13755,0.77678 -4.66416,1.00346 -1.52662,0.22668 -4.18914,0.40106 -5.91671,0.38751 -1.72758,-0.0136 -4.15308,-0.20245 -5.39,-0.41978 z m 26.06145,-11.48386 c -1.4552,-0.1169 -3.15184,-0.28613 -3.77031,-0.37606 l -1.12448,-0.16351 v -1.46986 c 0,-1.39566 0.03,-1.46172 0.59532,-1.30868 0.32742,0.0886 3.22894,0.24013 6.44783,0.33664 4.22888,0.12679 6.32085,0.0842 7.54063,-0.1536 0.92845,-0.18099 2.2487,-0.63248 2.93388,-1.00331 0.68518,-0.37083 1.54173,-1.1045 1.90344,-1.63036 0.36172,-0.52587 0.79289,-1.31331 0.95817,-1.74987 0.16527,-0.43656 0.30149,-1.59357 0.30271,-2.57112 0.001,-0.97756 -0.14563,-2.22771 -0.32633,-2.77813 -0.18071,-0.55041 -0.59692,-1.42742 -0.92491,-1.94891 -0.328,-0.52148 -1.15542,-1.44025 -1.8387,-2.04169 -0.68328,-0.60145 -1.91468,-1.34675 -2.73645,-1.65622 -0.82177,-0.30947 -2.32757,-0.74915 -3.34621,-0.97707 -1.36083,-0.30447 -3.44581,-0.42074 -7.86057,-0.43833 l -6.0085,-0.024 -0.17271,-1.45521 c -0.095,-0.80036 -0.26102,-1.95027 -0.36895,-2.55534 -0.19178,-1.07514 -0.17759,-1.10383 0.62495,-1.26323 0.45165,-0.0897 3.02876,-0.23474 5.72689,-0.3223 3.09452,-0.10043 5.7288,-0.0484 7.13515,0.14083 1.2262,0.16502 3.00723,0.49082 3.95785,0.724 0.95061,0.23318 2.71771,0.88267 3.92688,1.44331 1.20917,0.56064 2.69745,1.39835 3.30729,1.86158 0.60984,0.46322 1.56051,1.33084 2.11259,1.92804 0.55209,0.5972 1.27741,1.50254 1.61183,2.01186 0.33442,0.50932 0.92823,1.72954 1.31957,2.71159 0.4509,1.13151 0.76772,2.53677 0.86496,3.83645 0.11126,1.48732 0.0314,2.51645 -0.29055,3.74496 -0.24419,0.93173 -0.83771,2.30954 -1.31893,3.06181 -0.49757,0.77783 -1.42626,1.73294 -2.15313,2.2144 -0.703,0.46565 -1.87888,1.02739 -2.61307,1.24832 -0.73419,0.22092 -2.16832,0.51228 -3.18697,0.64745 -1.01864,0.13517 -3.81661,0.23278 -6.21771,0.21691 -2.40109,-0.0159 -5.55625,-0.1245 -7.01146,-0.2414 z"
       id="path1-5-9" /></g></svg>
